<mxfile host="app.diagrams.net" modified="2024-04-21T04:59:49.159Z" agent="Mozilla/5.0 (Windows NT 10.0; Win64; x64) AppleWebKit/537.36 (KHTML, like Gecko) Chrome/124.0.0.0 Safari/537.36" etag="wIkzGp-6RrgOd9ViooTC" version="24.2.7" type="device">
  <diagram name="Page-1" id="T3Ic2Mwymvuov8rqMbHi">
    <mxGraphModel dx="1229" dy="530" grid="1" gridSize="10" guides="1" tooltips="1" connect="1" arrows="1" fold="1" page="1" pageScale="1" pageWidth="850" pageHeight="1100" math="0" shadow="0">
      <root>
        <mxCell id="0" />
        <mxCell id="1" parent="0" />
        <mxCell id="F32UuEhyRfjQbtu5XY9a-10" value="" style="edgeStyle=orthogonalEdgeStyle;rounded=0;orthogonalLoop=1;jettySize=auto;html=1;" parent="1" source="F32UuEhyRfjQbtu5XY9a-1" target="F32UuEhyRfjQbtu5XY9a-3" edge="1">
          <mxGeometry x="0.4357" y="133" relative="1" as="geometry">
            <mxPoint as="offset" />
          </mxGeometry>
        </mxCell>
        <mxCell id="F32UuEhyRfjQbtu5XY9a-23" value="Upload Images" style="edgeLabel;html=1;align=center;verticalAlign=middle;resizable=0;points=[];" parent="F32UuEhyRfjQbtu5XY9a-10" vertex="1" connectable="0">
          <mxGeometry x="0.0597" y="-2" relative="1" as="geometry">
            <mxPoint y="1" as="offset" />
          </mxGeometry>
        </mxCell>
        <mxCell id="F32UuEhyRfjQbtu5XY9a-1" value="User" style="rounded=0;whiteSpace=wrap;html=1;" parent="1" vertex="1">
          <mxGeometry x="223" width="110" height="50" as="geometry" />
        </mxCell>
        <mxCell id="F32UuEhyRfjQbtu5XY9a-19" style="edgeStyle=orthogonalEdgeStyle;rounded=0;orthogonalLoop=1;jettySize=auto;html=1;entryX=0.5;entryY=1;entryDx=0;entryDy=0;" parent="1" source="F32UuEhyRfjQbtu5XY9a-2" target="F32UuEhyRfjQbtu5XY9a-9" edge="1">
          <mxGeometry relative="1" as="geometry" />
        </mxCell>
        <mxCell id="F32UuEhyRfjQbtu5XY9a-31" value="Similarity&amp;nbsp;&lt;br&gt;score" style="edgeLabel;html=1;align=center;verticalAlign=middle;resizable=0;points=[];" parent="F32UuEhyRfjQbtu5XY9a-19" vertex="1" connectable="0">
          <mxGeometry x="-0.2139" y="-2" relative="1" as="geometry">
            <mxPoint as="offset" />
          </mxGeometry>
        </mxCell>
        <mxCell id="F32UuEhyRfjQbtu5XY9a-2" value="Siamese Neural Network" style="rounded=0;whiteSpace=wrap;html=1;" parent="1" vertex="1">
          <mxGeometry x="430" y="340" width="120" height="60" as="geometry" />
        </mxCell>
        <mxCell id="F32UuEhyRfjQbtu5XY9a-16" value="" style="edgeStyle=orthogonalEdgeStyle;rounded=0;orthogonalLoop=1;jettySize=auto;html=1;" parent="1" source="F32UuEhyRfjQbtu5XY9a-3" target="F32UuEhyRfjQbtu5XY9a-8" edge="1">
          <mxGeometry relative="1" as="geometry" />
        </mxCell>
        <mxCell id="F32UuEhyRfjQbtu5XY9a-28" value="Genuine signature&lt;br&gt;&amp;nbsp;image" style="edgeLabel;html=1;align=center;verticalAlign=middle;resizable=0;points=[];" parent="F32UuEhyRfjQbtu5XY9a-16" vertex="1" connectable="0">
          <mxGeometry x="-0.3103" relative="1" as="geometry">
            <mxPoint as="offset" />
          </mxGeometry>
        </mxCell>
        <mxCell id="F32UuEhyRfjQbtu5XY9a-33" style="edgeStyle=orthogonalEdgeStyle;rounded=0;orthogonalLoop=1;jettySize=auto;html=1;entryX=0.5;entryY=0;entryDx=0;entryDy=0;" parent="1" source="F32UuEhyRfjQbtu5XY9a-3" target="F32UuEhyRfjQbtu5XY9a-6" edge="1">
          <mxGeometry relative="1" as="geometry" />
        </mxCell>
        <mxCell id="F32UuEhyRfjQbtu5XY9a-34" value="Upload Document Image" style="edgeLabel;html=1;align=center;verticalAlign=middle;resizable=0;points=[];" parent="F32UuEhyRfjQbtu5XY9a-33" vertex="1" connectable="0">
          <mxGeometry x="0.4674" relative="1" as="geometry">
            <mxPoint as="offset" />
          </mxGeometry>
        </mxCell>
        <mxCell id="X0vaTfX90_ngJVKssVtc-1" style="edgeStyle=orthogonalEdgeStyle;rounded=0;orthogonalLoop=1;jettySize=auto;html=1;exitX=0;exitY=0;exitDx=0;exitDy=0;entryX=0;entryY=0.5;entryDx=0;entryDy=0;" edge="1" parent="1" source="F32UuEhyRfjQbtu5XY9a-3" target="F32UuEhyRfjQbtu5XY9a-1">
          <mxGeometry relative="1" as="geometry">
            <Array as="points">
              <mxPoint x="200" y="134" />
              <mxPoint x="200" y="25" />
            </Array>
          </mxGeometry>
        </mxCell>
        <mxCell id="X0vaTfX90_ngJVKssVtc-2" value="Results" style="edgeLabel;html=1;align=center;verticalAlign=middle;resizable=0;points=[];" vertex="1" connectable="0" parent="X0vaTfX90_ngJVKssVtc-1">
          <mxGeometry x="0.0896" y="2" relative="1" as="geometry">
            <mxPoint as="offset" />
          </mxGeometry>
        </mxCell>
        <mxCell id="F32UuEhyRfjQbtu5XY9a-3" value="Web App" style="ellipse;whiteSpace=wrap;html=1;aspect=fixed;" parent="1" vertex="1">
          <mxGeometry x="230" y="120" width="95" height="95" as="geometry" />
        </mxCell>
        <mxCell id="F32UuEhyRfjQbtu5XY9a-15" value="" style="edgeStyle=orthogonalEdgeStyle;rounded=0;orthogonalLoop=1;jettySize=auto;html=1;" parent="1" source="F32UuEhyRfjQbtu5XY9a-6" target="F32UuEhyRfjQbtu5XY9a-8" edge="1">
          <mxGeometry relative="1" as="geometry" />
        </mxCell>
        <mxCell id="F32UuEhyRfjQbtu5XY9a-29" value="Extracted&amp;nbsp;&lt;br&gt;Signature&amp;nbsp;&lt;br&gt;Image" style="edgeLabel;html=1;align=center;verticalAlign=middle;resizable=0;points=[];" parent="F32UuEhyRfjQbtu5XY9a-15" vertex="1" connectable="0">
          <mxGeometry x="-0.2443" y="1" relative="1" as="geometry">
            <mxPoint as="offset" />
          </mxGeometry>
        </mxCell>
        <mxCell id="F32UuEhyRfjQbtu5XY9a-6" value="YOLOv8" style="rounded=0;whiteSpace=wrap;html=1;" parent="1" vertex="1">
          <mxGeometry y="340" width="120" height="60" as="geometry" />
        </mxCell>
        <mxCell id="F32UuEhyRfjQbtu5XY9a-18" value="" style="edgeStyle=orthogonalEdgeStyle;rounded=0;orthogonalLoop=1;jettySize=auto;html=1;" parent="1" source="F32UuEhyRfjQbtu5XY9a-8" target="F32UuEhyRfjQbtu5XY9a-2" edge="1">
          <mxGeometry relative="1" as="geometry" />
        </mxCell>
        <mxCell id="F32UuEhyRfjQbtu5XY9a-30" value="Processed&amp;nbsp;&lt;br&gt;images" style="edgeLabel;html=1;align=center;verticalAlign=middle;resizable=0;points=[];" parent="F32UuEhyRfjQbtu5XY9a-18" vertex="1" connectable="0">
          <mxGeometry x="-0.1842" relative="1" as="geometry">
            <mxPoint as="offset" />
          </mxGeometry>
        </mxCell>
        <mxCell id="F32UuEhyRfjQbtu5XY9a-8" value="Preprocess&amp;nbsp;&lt;br&gt;module" style="ellipse;whiteSpace=wrap;html=1;aspect=fixed;" parent="1" vertex="1">
          <mxGeometry x="238" y="330" width="80" height="80" as="geometry" />
        </mxCell>
        <mxCell id="F32UuEhyRfjQbtu5XY9a-20" style="edgeStyle=orthogonalEdgeStyle;rounded=0;orthogonalLoop=1;jettySize=auto;html=1;entryX=1;entryY=0;entryDx=0;entryDy=0;" parent="1" source="F32UuEhyRfjQbtu5XY9a-9" target="F32UuEhyRfjQbtu5XY9a-3" edge="1">
          <mxGeometry relative="1" as="geometry">
            <Array as="points">
              <mxPoint x="638" y="134" />
            </Array>
          </mxGeometry>
        </mxCell>
        <mxCell id="F32UuEhyRfjQbtu5XY9a-32" value="Genuine/ Forged" style="edgeLabel;html=1;align=center;verticalAlign=middle;resizable=0;points=[];" parent="F32UuEhyRfjQbtu5XY9a-20" vertex="1" connectable="0">
          <mxGeometry x="0.2577" y="3" relative="1" as="geometry">
            <mxPoint x="-1" as="offset" />
          </mxGeometry>
        </mxCell>
        <mxCell id="F32UuEhyRfjQbtu5XY9a-9" value="Classification&amp;nbsp;&lt;br&gt;module" style="ellipse;whiteSpace=wrap;html=1;aspect=fixed;" parent="1" vertex="1">
          <mxGeometry x="590" y="190" width="95" height="95" as="geometry" />
        </mxCell>
        <mxCell id="F32UuEhyRfjQbtu5XY9a-13" style="edgeStyle=orthogonalEdgeStyle;rounded=0;orthogonalLoop=1;jettySize=auto;html=1;entryX=0.912;entryY=0.261;entryDx=0;entryDy=0;entryPerimeter=0;" parent="1" source="F32UuEhyRfjQbtu5XY9a-3" target="F32UuEhyRfjQbtu5XY9a-8" edge="1">
          <mxGeometry relative="1" as="geometry">
            <mxPoint x="400" y="320" as="targetPoint" />
            <Array as="points">
              <mxPoint x="430" y="167" />
              <mxPoint x="430" y="320" />
              <mxPoint x="311" y="320" />
            </Array>
          </mxGeometry>
        </mxCell>
        <mxCell id="F32UuEhyRfjQbtu5XY9a-27" value="Signature image &lt;br&gt;to be verified" style="edgeLabel;html=1;align=center;verticalAlign=middle;resizable=0;points=[];" parent="F32UuEhyRfjQbtu5XY9a-13" vertex="1" connectable="0">
          <mxGeometry x="-0.108" y="2" relative="1" as="geometry">
            <mxPoint as="offset" />
          </mxGeometry>
        </mxCell>
      </root>
    </mxGraphModel>
  </diagram>
</mxfile>
